# xmcd CD database file
#
# Track frame offsets:
#	150
#	14579
#	36896
#	59865
#	74868
#	94867
#	110334
#	122674
#	143186
#	161028
#	180037
#
# Disc length: 2653 seconds
#
# Revision: 0
# Processed by: cddbd v1.5.2PL0 Copyright (c) Steve Scherf et al.
# Submitted via: CDex 1.70beta2
#
DISCID=a00a5b0b
DTITLE=Bluest Blues - You Too
DYEAR=2007
DGENRE=Blues
TTITLE0=I Was born In The City
TTITLE1=When All Is Dark
TTITLE2=Thierry's Blues
TTITLE3=I Meet You
TTITLE4=In My Head
TTITLE5=The Last Time
TTITLE6=Baby You Know
TTITLE7=Redneck
TTITLE8=Rebirth
TTITLE9=Black Day
TTITLE10=You
EXTD=YEAR: 2007
EXTT0=
EXTT1=
EXTT2=
EXTT3=
EXTT4=
EXTT5=
EXTT6=
EXTT7=
EXTT8=
EXTT9=
EXTT10=
PLAYORDER=
